<svg width="34px" height="25px" viewBox="0 0 34 25" version="1.1" xmlns="http://www.w3.org/2000/svg" xmlns:xlink="http://www.w3.org/1999/xlink" _ngcontent-pfi-c59="" aria-hidden="true">
    <!-- Generator: sketchtool 58 (101010) - https://sketch.com -->
    <title _ngcontent-pfi-c59="">D6205822-7601-493E-A656-1C80E2D0129B</title>
    <desc _ngcontent-pfi-c59="">Created with sketchtool.</desc>
    <g id="Page-1" stroke="none" stroke-width="1" fill="none" fill-rule="evenodd" _ngcontent-pfi-c59="">
        <g id="Dice" transform="translate(-3026.000000, -247.000000)" fill="#0354B6" fill-rule="nonzero" _ngcontent-pfi-c59="">
            <g id="game-menu" transform="translate(2789.000000, 140.000000)" _ngcontent-pfi-c59="">
                <g id="Group-30" transform="translate(20.000000, 19.000000)" _ngcontent-pfi-c59="">
                    <g id="icon-ho" transform="translate(217.000000, 88.000000)" _ngcontent-pfi-c59="">
                        <path d="M12.9797297,1.00506757 C11.8695627,1.00506757 10.9695946,1.90503572 10.9695946,3.0152027 L10.9695946,21.1064189 C10.9695946,22.2165859 11.8695627,23.1165541 12.9797297,23.1165541 L21.0202703,23.1165541 C22.1304373,23.1165541 23.0304054,22.2165859 23.0304054,21.1064189 L23.0304054,3.0152027 C23.0304054,1.90503572 22.1304373,1.00506757 21.0202703,1.00506757 L12.9797297,1.00506757 Z M12.9797297,0 L21.0202703,0 C22.6855207,0 24.035473,1.34995223 24.035473,3.0152027 L24.035473,21.1064189 C24.035473,22.7716694 22.6855207,24.1216216 21.0202703,24.1216216 L12.9797297,24.1216216 C11.3144793,24.1216216 9.96452703,22.7716694 9.96452703,21.1064189 L9.96452703,3.0152027 C9.96452703,1.34995223 11.3144793,0 12.9797297,0 Z" id="Rectangle" _ngcontent-pfi-c59=""></path>
                        <path d="M17,15.0760135 C18.6652505,15.0760135 20.0152027,13.7260613 20.0152027,12.0608108 C20.0152027,10.3955603 18.6652505,9.04560811 17,9.04560811 C15.3347495,9.04560811 13.9847973,10.3955603 13.9847973,12.0608108 C13.9847973,13.7260613 15.3347495,15.0760135 17,15.0760135 Z M17,16.0810811 C14.779666,16.0810811 12.9797297,14.2811448 12.9797297,12.0608108 C12.9797297,9.84047685 14.779666,8.04054054 17,8.04054054 C19.220334,8.04054054 21.0202703,9.84047685 21.0202703,12.0608108 C21.0202703,14.2811448 19.220334,16.0810811 17,16.0810811 Z" id="Oval-2" _ngcontent-pfi-c59=""></path>
                        <path d="M33.5836149,19.4859438 L33.5836149,20.4910113 L30.0658784,20.4910113 C28.1230862,20.4910113 26.5481419,18.9160671 26.5481419,16.9732748 L26.5481419,7.03547297 C26.5481419,5.09268076 28.1230862,3.51773649 30.0658784,3.51773649 L33.5836149,3.51773649 L33.5836149,4.52280405 L30.0658784,4.52280405 C28.6781697,4.52280405 27.5532095,5.64776425 27.5532095,7.03547297 L27.5532095,16.9732748 C27.5532095,18.3609836 28.6781697,19.4859438 30.0658784,19.4859438 L33.5836149,19.4859438 Z" id="Line" _ngcontent-pfi-c59=""></path>
                        <path d="M7.45185811,19.4859438 L7.45185811,20.4910113 L3.93412162,20.4910113 C1.99132941,20.4910113 0.416385135,18.9160671 0.416385135,16.9732748 L0.416385135,7.03547297 C0.416385135,5.09268076 1.99132941,3.51773649 3.93412162,3.51773649 L7.45185811,3.51773649 L7.45185811,4.52280405 L3.93412162,4.52280405 C2.5464129,4.52280405 1.4214527,5.64776425 1.4214527,7.03547297 L1.4214527,16.9732748 C1.4214527,18.3609836 2.5464129,19.4859438 3.93412162,19.4859438 L7.45185811,19.4859438 Z" id="Line-Copy" transform="translate(3.934122, 12.004374) scale(-1, 1) translate(-3.934122, -12.004374) " _ngcontent-pfi-c59=""></path>
                    </g>
                </g>
            </g>
        </g>
    </g>
</svg>