<svg width="16" height="21" viewBox="0 0 16 21" xmlns="http://www.w3.org/2000/svg">
    <defs>
        <linearGradient x1="50%" y1="0%" x2="50%" y2="100%" id="4cxlu2d99a">
            <stop stop-color="#F5CC24" offset="0%"/>
            <stop stop-color="#F89407" offset="100%"/>
        </linearGradient>
        <linearGradient x1="50%" y1="0%" x2="50%" y2="100%" id="im4vqainlb">
            <stop stop-color="#FC4A62" offset="0%"/>
            <stop stop-color="#EE0024" offset="96.868%"/>
        </linearGradient>
    </defs>
    <g fillRule="nonzero" fill="none">
        <path d="M3.209 19.102c-.976-1.095-1.951-2.234-2.572-3.592a8.056 8.056 0 0 1-.487-4.688 10.058 10.058 0 0 1 2.04-4.338C2.1 7.58 2.5 8.72 3.252 9.551 2.81 7.448 3.52 5.17 4.938 3.505S8.308.745 10.347 0c-1.02 1.052-1.153 2.716-.754 4.118.4 1.402 1.242 2.63 1.995 3.9.754 1.27 1.464 2.585 1.508 4.03.399-.744.842-1.49 1.108-2.322.266-.832.4-1.708.178-2.54.798.963 1.241 1.927 1.463 3.154.221 1.227.177 2.497.044 3.724-.177 1.358-.532 2.76-1.286 3.9-.886 1.357-2.305 2.321-3.857 2.847-2.749.482-5.453.088-7.537-1.709z" fill="url(#4cxlu2d99a)"/>
        <path d="M6.02 20.728c3.746 1.385 7.448-2.813 5.391-6.059 0-.043-.045-.043-.045-.086.182 1.774-.275 3.073-1.143 3.808.457-1.038.137-2.25-.411-3.289-.548-.995-1.325-1.904-1.92-2.856-.593-.996-1.05-2.12-.776-3.246a5.69 5.69 0 0 0-2.194 3.203c-.32 1.255-.137 2.64.457 3.808-.685-.476-1.188-1.255-1.233-2.077-.732.822-1.189 1.904-1.143 2.986 0 1.688 1.417 3.202 3.016 3.808z" fill="url(#im4vqainlb)"/>
    </g>
</svg>
