<svg xmlns="http://www.w3.org/2000/svg" width="21" height="16" viewBox="0 0 21 16" _ngcontent-yrh-c84="" aria-hidden="true">
    <defs _ngcontent-yrh-c84="">
        <linearGradient id="prefix__a" x1="50%" x2="50%" y1="0%" y2="100%" _ngcontent-yrh-c84="">
            <stop offset="0%" stop-color="#AA0101" _ngcontent-yrh-c84=""></stop>
            <stop offset="100%" stop-color="#FF008F" _ngcontent-yrh-c84=""></stop>
        </linearGradient>
        <linearGradient id="prefix__b" x1="50%" x2="50%" y1="0%" y2="100%" _ngcontent-yrh-c84="">
            <stop offset="0%" stop-color="#AA0101" _ngcontent-yrh-c84=""></stop>
            <stop offset="100%" stop-color="#FF008F" _ngcontent-yrh-c84=""></stop>
        </linearGradient>
        <linearGradient id="prefix__c" x1="50%" x2="50%" y1="0%" y2="100%" _ngcontent-yrh-c84="">
            <stop offset="0%" stop-color="#AA0101" _ngcontent-yrh-c84=""></stop>
            <stop offset="100%" stop-color="#FF008F" _ngcontent-yrh-c84=""></stop>
        </linearGradient>
        <linearGradient id="prefix__d" x1="50%" x2="50%" y1="0%" y2="100%" _ngcontent-yrh-c84="">
            <stop offset="0%" stop-color="#AA0101" _ngcontent-yrh-c84=""></stop>
            <stop offset="100%" stop-color="#FF008F" _ngcontent-yrh-c84=""></stop>
        </linearGradient>
        <linearGradient id="prefix__e" x1="50%" x2="50%" y1="0%" y2="100%" _ngcontent-yrh-c84="">
            <stop offset="0%" stop-color="#AA0101" _ngcontent-yrh-c84=""></stop>
            <stop offset="100%" stop-color="#FF008F" _ngcontent-yrh-c84=""></stop>
        </linearGradient>
        <linearGradient id="prefix__f" x1="50%" x2="50%" y1="0%" y2="100%" _ngcontent-yrh-c84="">
            <stop offset="0%" stop-color="#AA0101" _ngcontent-yrh-c84=""></stop>
            <stop offset="100%" stop-color="#FF008F" _ngcontent-yrh-c84=""></stop>
        </linearGradient>
    </defs>
    <g fill="none" fillRule="evenodd" _ngcontent-yrh-c84="">
        <path fill="url(#prefix__a)" d="M9.837 0c-2.358.135-4.568 1.05-6.33 2.622L6.12 5.236c.575-.204 1.194-.316 1.838-.316.66 0 1.291.117 1.878.33V0z" _ngcontent-yrh-c84=""></path>
        <path fill="url(#prefix__b)" d="M12.213 6.933L17.16 2.42C15.436.972 13.316.129 11.06 0v5.88c.432.294.82.65 1.152 1.053z" _ngcontent-yrh-c84=""></path>
        <path fill="url(#prefix__c)" d="M0 10.43v.613h2.449v-.612c0-1.934 1.001-3.638 2.513-4.622L2.64 3.488C.934 5.403 0 7.845 0 10.431z" _ngcontent-yrh-c84=""></path>
        <path fill="url(#prefix__d)" d="M17.651 11.043h3.247v-.612c0-.89-.111-1.764-.326-2.604l-2.92 3.216z" _ngcontent-yrh-c84=""></path>
        <path fill="url(#prefix__e)" d="M10.449 11.064c-.654 0-1.27.254-1.732.717-.955.955-.955 2.508 0 3.463.463.463 1.078.718 1.732.718.654 0 1.269-.255 1.731-.718.955-.955.955-2.508 0-3.463-.462-.463-1.077-.717-1.731-.717z" _ngcontent-yrh-c84=""></path>
        <path fill="url(#prefix__f)" d="M18.293 3.043l-7.47 6.815c.84.085 1.619.452 2.223 1.057.62.62.97 1.407 1.054 2.217l6.798-7.485V3.043h-2.605z" _ngcontent-yrh-c84=""></path>
    </g>
</svg>